<svg xmlns="http://www.w3.org/2000/svg" width="1600" height="900" viewBox="0 0 1600 900" role="img" aria-labelledby="title description">
  <title id="title">The Codex Metabolism closed loop</title>
  <desc id="description">A human and Codex turn useful work into reusable workflow candidates, review later friction with GPT-5.6, cross a human approval boundary, and use future sessions to keep, repair, roll back, or archive the collaboration layer.</desc>
  <defs>
    <linearGradient id="background" x1="0" y1="0" x2="1" y2="1">
      <stop offset="0" stop-color="#07111f"/>
      <stop offset="0.56" stop-color="#0d182a"/>
      <stop offset="1" stop-color="#16263d"/>
    </linearGradient>
    <linearGradient id="loopStroke" x1="0" y1="0" x2="1" y2="0">
      <stop offset="0" stop-color="#7dd3fc"/>
      <stop offset="0.52" stop-color="#a5b4fc"/>
      <stop offset="1" stop-color="#86efac"/>
    </linearGradient>
    <filter id="shadow" x="-20%" y="-20%" width="140%" height="160%">
      <feDropShadow dx="0" dy="16" stdDeviation="18" flood-color="#020617" flood-opacity="0.45"/>
    </filter>
    <marker id="arrow" viewBox="0 0 12 12" refX="10" refY="6" markerWidth="9" markerHeight="9" orient="auto-start-reverse">
      <path d="M1 1 L11 6 L1 11 Z" fill="#64748b"/>
    </marker>
    <marker id="loopArrow" viewBox="0 0 12 12" refX="10" refY="6" markerWidth="10" markerHeight="10" orient="auto-start-reverse">
      <path d="M1 1 L11 6 L1 11 Z" fill="#7dd3fc"/>
    </marker>
  </defs>

  <rect width="1600" height="900" fill="url(#background)"/>
  <circle cx="1510" cy="30" r="260" fill="#38bdf8" opacity="0.055"/>
  <circle cx="80" cy="890" r="280" fill="#4ade80" opacity="0.045"/>
  <path d="M0 235 C360 180 585 270 850 222 C1110 175 1340 185 1600 244" fill="none" stroke="#334155" stroke-width="1" opacity="0.35"/>

  <g font-family="Segoe UI, Arial, sans-serif">
    <text x="72" y="74" fill="#7dd3fc" font-size="19" font-weight="700" letter-spacing="4">THE CODEX METABOLISM LOOP</text>
    <text x="72" y="145" fill="#f8fafc" font-size="52" font-weight="750">What should collaboration grow—or let go?</text>
    <text x="72" y="192" fill="#b7c5d8" font-size="23">Useful work becomes reusable; future sessions reveal what to reinforce, repair, or retire.</text>

    <rect x="1250" y="58" width="278" height="46" rx="23" fill="#10233b" stroke="#334155"/>
    <circle cx="1280" cy="81" r="6" fill="#86efac"/>
    <text x="1300" y="88" fill="#d7e3f0" font-size="15" font-weight="650" letter-spacing="1.2">EVIDENCE-DRIVEN · HUMAN-GATED</text>

    <!-- 01 Observe -->
    <g filter="url(#shadow)">
      <rect x="72" y="280" width="300" height="278" rx="24" fill="#111d31" stroke="#fb7185" stroke-width="1.5"/>
      <rect x="72" y="280" width="300" height="7" rx="3.5" fill="#fb7185"/>
    </g>
    <text x="98" y="333" fill="#fb7185" font-size="16" font-weight="750" letter-spacing="1.4">01 · COLLABORATE</text>
    <text x="98" y="384" fill="#f8fafc" font-size="23" font-weight="750">WORK + SIGNALS</text>
    <circle cx="105" cy="434" r="7" fill="#fb7185" opacity="0.95"/>
    <circle cx="132" cy="434" r="7" fill="#fb7185" opacity="0.62"/>
    <circle cx="159" cy="434" r="7" fill="#fb7185" opacity="0.32"/>
    <text x="98" y="484" fill="#d3deea" font-size="19">useful path → workflow</text>
    <text x="98" y="516" fill="#d3deea" font-size="19">friction → feedback</text>

    <!-- 02 Stage -->
    <g filter="url(#shadow)">
      <rect x="440" y="280" width="300" height="278" rx="24" fill="#111d31" stroke="#38bdf8" stroke-width="1.5"/>
      <rect x="440" y="280" width="300" height="7" rx="3.5" fill="#38bdf8"/>
    </g>
    <text x="466" y="333" fill="#7dd3fc" font-size="16" font-weight="750" letter-spacing="1.4">02 · REVIEW + STAGE</text>
    <text x="466" y="384" fill="#f8fafc" font-size="19" font-weight="750">GPT INTERPRETS · HUMAN CHOOSES</text>
    <rect x="466" y="418" width="248" height="42" rx="12" fill="#0b2940"/>
    <text x="590" y="445" text-anchor="middle" fill="#bae6fd" font-size="17" font-weight="650">workflow → skill candidate</text>
    <rect x="466" y="470" width="248" height="42" rx="12" fill="#0b2940"/>
    <text x="590" y="497" text-anchor="middle" fill="#bae6fd" font-size="17" font-weight="650">friction → smallest fix</text>

    <!-- 03 Validate -->
    <g filter="url(#shadow)">
      <rect x="808" y="280" width="300" height="278" rx="24" fill="#111d31" stroke="#fbbf24" stroke-width="1.5"/>
      <rect x="808" y="280" width="300" height="7" rx="3.5" fill="#fbbf24"/>
    </g>
    <text x="834" y="333" fill="#fbbf24" font-size="16" font-weight="750" letter-spacing="1.4">03 · VALIDATE</text>
    <text x="834" y="384" fill="#f8fafc" font-size="20" font-weight="750">LATER SESSIONS VALIDATE</text>
    <path d="M839 435 L851 447 L876 418" fill="none" stroke="#86efac" stroke-width="5" stroke-linecap="round" stroke-linejoin="round"/>
    <text x="894" y="443" fill="#d3deea" font-size="18">VALIDATED</text>
    <path d="M839 481 L851 493 L876 464" fill="none" stroke="#fbbf24" stroke-width="5" stroke-linecap="round" stroke-linejoin="round"/>
    <text x="894" y="489" fill="#d3deea" font-size="18">INEFFECTIVE · IDLE</text>

    <!-- 04 Metabolize -->
    <g filter="url(#shadow)">
      <rect x="1176" y="280" width="300" height="278" rx="24" fill="#111d31" stroke="#4ade80" stroke-width="1.5"/>
      <rect x="1176" y="280" width="300" height="7" rx="3.5" fill="#4ade80"/>
    </g>
    <text x="1202" y="333" fill="#86efac" font-size="16" font-weight="750" letter-spacing="1.4">04 · METABOLIZE</text>
    <text x="1202" y="384" fill="#f8fafc" font-size="25" font-weight="750">CHANGE ITS FATE</text>
    <rect x="1202" y="418" width="248" height="94" rx="15" fill="#0c2b27" stroke="#1f5e4f"/>
    <text x="1326" y="454" text-anchor="middle" fill="#d1fae5" font-size="17" font-weight="700">KEEP · REPAIR ·</text>
    <text x="1326" y="486" text-anchor="middle" fill="#d1fae5" font-size="17" font-weight="700">ROLLBACK · ARCHIVE</text>
    <text x="1326" y="535" text-anchor="middle" fill="#7dd3a8" font-size="15">reversible by design</text>

    <!-- Main forward path -->
    <path d="M382 419 L428 419" fill="none" stroke="#64748b" stroke-width="3" marker-end="url(#arrow)"/>
    <path d="M750 419 L798 419" fill="none" stroke="#64748b" stroke-width="3" marker-end="url(#arrow)"/>
    <path d="M1118 419 L1166 419" fill="none" stroke="#64748b" stroke-width="3" marker-end="url(#arrow)"/>

    <!-- Human trust boundary -->
    <path d="M774 392 L774 446" stroke="#fbbf24" stroke-width="3"/>
    <circle cx="774" cy="419" r="8" fill="#fbbf24"/>
    <rect x="674" y="586" width="200" height="46" rx="23" fill="#3b2a0a" stroke="#fbbf24"/>
    <text x="774" y="615" text-anchor="middle" fill="#fde68a" font-size="16" font-weight="750" letter-spacing="1.3">HUMAN APPROVAL</text>
    <path d="M774 586 L774 450" stroke="#fbbf24" stroke-width="2" stroke-dasharray="5 7"/>

    <!-- Loop back into the next sessions -->
    <path d="M1326 568 L1326 700 Q1326 742 1284 742 L264 742 Q222 742 222 700 L222 570" fill="none" stroke="url(#loopStroke)" stroke-width="5" stroke-linecap="round" marker-end="url(#loopArrow)"/>
    <rect x="590" y="714" width="420" height="56" rx="28" fill="#10233b" stroke="#5d7190"/>
    <text x="800" y="748" text-anchor="middle" fill="#dbeafe" font-size="18" font-weight="750" letter-spacing="1.1">FUTURE HUMAN + CODEX SESSIONS</text>

    <text x="800" y="830" text-anchor="middle" fill="#94a3b8" font-size="18">Evidence before permanence · subtraction counts as improvement · same Codex, different metabolism</text>
    <text x="72" y="866" fill="#52647c" font-size="13">Codex Metabolism · OpenAI Build Week · Developer Tools · MIT</text>
  </g>
</svg>
